<?xml version="1.0" encoding="UTF-8"?>
<!DOCTYPE svg PUBLIC "-//W3C//DTD SVG 1.1//EN" "http://www.w3.org/Graphics/SVG/1.1/DTD/svg11.dtd">
<svg xmlns="http://www.w3.org/2000/svg" version="1.1" width="539px" height="167px" style="shape-rendering:geometricPrecision; text-rendering:geometricPrecision; image-rendering:optimizeQuality; fill-rule:evenodd; clip-rule:evenodd" xmlns:xlink="http://www.w3.org/1999/xlink">
<g><path style="opacity:0.016" fill="#f5ecfe" d="M 48.5,27.5 C 46.917,29.8632 45.0836,29.8632 43,27.5C 42.148,21.0008 44.4813,19.3341 50,22.5C 50.1667,23.3333 50.3333,24.1667 50.5,25C 50.3158,26.3756 49.6491,27.2089 48.5,27.5 Z"/></g>
<g><path style="opacity:0.998" fill="#bd7bfd" d="M 48.5,27.5 C 44.3241,28.1693 42.9907,26.6693 44.5,23C 45.7932,22.51 47.1266,22.3433 48.5,22.5C 48.5,24.1667 48.5,25.8333 48.5,27.5 Z"/></g>
<g><path style="opacity:0.588" fill="#dcbcfd" d="M 129.5,23.5 C 130.434,24.5676 130.768,25.901 130.5,27.5C 130.5,28.1667 130.167,28.5 129.5,28.5C 128.209,28.7373 127.209,28.404 126.5,27.5C 127.5,27.5 128.5,27.5 129.5,27.5C 129.5,26.1667 129.5,24.8333 129.5,23.5 Z"/></g>
<g><path style="opacity:0.071" fill="#faf7fe" d="M 130.5,27.5 C 130.768,25.901 130.434,24.5676 129.5,23.5C 125.672,21.6393 124.005,22.9726 124.5,27.5C 121.93,25.8234 121.93,23.9901 124.5,22C 130.494,20.164 132.494,21.9973 130.5,27.5 Z"/></g>
<g><path style="opacity:0.961" fill="#ca94fd" d="M 129.5,23.5 C 128.5,23.5 127.5,23.5 126.5,23.5C 126.5,24.8333 126.5,26.1667 126.5,27.5C 125.833,27.5 125.167,27.5 124.5,27.5C 124.005,22.9726 125.672,21.6393 129.5,23.5 Z"/></g>
<g><path style="opacity:0.995" fill="#b66cfe" d="M 129.5,23.5 C 129.5,24.8333 129.5,26.1667 129.5,27.5C 128.5,27.5 127.5,27.5 126.5,27.5C 126.5,26.1667 126.5,24.8333 126.5,23.5C 127.5,23.5 128.5,23.5 129.5,23.5 Z"/></g>
<g><path style="opacity:0.137" fill="#f4e9fe" d="M 27.5,24.5 C 34.6095,23.9037 36.6095,26.7371 33.5,33C 26.1333,33.7467 24.1333,30.9134 27.5,24.5 Z"/></g>
<g><path style="opacity:0.998" fill="#bb77fe" d="M 28.5,25.5 C 32.9083,25.062 34.5749,27.062 33.5,31.5C 28.0738,32.4161 26.4071,30.4161 28.5,25.5 Z"/></g>
<g><path style="opacity:0.059" fill="#f7f0fe" d="M 124.5,27.5 C 125.167,27.5 125.833,27.5 126.5,27.5C 127.209,28.404 128.209,28.7373 129.5,28.5C 127.545,29.9302 125.879,29.5969 124.5,27.5 Z"/></g>
<g><path style="opacity:0.071" fill="#f5ecfe" d="M 141.5,26.5 C 148.227,25.648 150.393,28.3147 148,34.5C 144.073,37.1346 141.24,36.1346 139.5,31.5C 140.174,29.8045 140.841,28.1379 141.5,26.5 Z"/></g>
<g><path style="opacity:0.051" fill="#f6effe" d="M 54.5,29.5 C 61.251,29.3802 63.251,32.2136 60.5,38C 56.0035,40.4185 53.3368,39.0851 52.5,34C 52.5186,32.167 53.1852,30.667 54.5,29.5 Z"/></g>
<g><path style="opacity:0.043" fill="#f7f0fe" d="M 113.5,36.5 C 111.048,34.5505 111.048,32.3838 113.5,30C 120.995,28.8127 122.995,31.4794 119.5,38C 116.766,40.1236 114.766,39.6236 113.5,36.5 Z"/></g>
<g><path style="opacity:0.998" fill="#bc79fe" d="M 55.5,30.5 C 59.9764,30.8003 61.3097,32.9669 59.5,37C 54.5705,37.427 53.2372,35.2604 55.5,30.5 Z"/></g>
<g><path style="opacity:0.999" fill="#bb78fd" d="M 113.5,36.5 C 112.408,31.8775 114.075,30.0442 118.5,31C 120.752,36.5795 119.085,38.4129 113.5,36.5 Z"/></g>
<g><path style="opacity:0.992" fill="#c283fd" d="M 142.5,28.5 C 142.5,29.8333 142.5,31.1667 142.5,32.5C 143.833,32.5 145.167,32.5 146.5,32.5C 146.5,31.1667 146.5,29.8333 146.5,28.5C 148.673,33.4614 147.173,35.1281 142,33.5C 141.22,31.6131 141.387,29.9464 142.5,28.5 Z"/></g>
<g><path style="opacity:0.999" fill="#b46afe" d="M 142.5,28.5 C 143.833,28.5 145.167,28.5 146.5,28.5C 146.5,29.8333 146.5,31.1667 146.5,32.5C 145.167,32.5 143.833,32.5 142.5,32.5C 142.5,31.1667 142.5,29.8333 142.5,28.5 Z"/></g>
<g><path style="opacity:1" fill="#b56cfe" d="M 256.5,35.5 C 257.304,38.5786 258.304,41.5786 259.5,44.5C 259.259,46.8984 259.926,48.8984 261.5,50.5C 263.097,52.8478 264.097,55.5145 264.5,58.5C 264.166,61.491 265.166,63.8243 267.5,65.5C 275.414,88.8525 284.08,111.852 293.5,134.5C 293.5,135.833 293.5,137.167 293.5,138.5C 286.91,138.811 280.41,138.478 274,137.5C 266.255,117.661 258.755,97.6607 251.5,77.5C 249.988,72.4518 248.321,67.4518 246.5,62.5C 246.771,60.6203 246.104,59.287 244.5,58.5C 242.443,51.3913 240.11,44.3913 237.5,37.5C 243.412,35.5437 249.745,34.8771 256.5,35.5 Z"/></g>
<g><path style="opacity:0.047" fill="#f7f1fe" d="M 365.5,34.5 C 366.664,69.3309 366.831,104.331 366,139.5C 359.333,140.833 352.667,140.833 346,139.5C 345.5,104.168 345.333,68.8349 345.5,33.5C 352.354,33.176 359.021,33.5093 365.5,34.5 Z"/></g>
<g><path style="opacity:0.055" fill="#f3e7fe" d="M 516.5,67.5 C 508.675,49.4131 495.008,38.7464 475.5,35.5C 475.171,41.2055 475.505,46.8722 476.5,52.5C 478.026,52.9943 479.359,53.661 480.5,54.5C 478.064,54.683 475.897,54.0163 474,52.5C 473.501,46.5092 473.334,40.5092 473.5,34.5C 494.99,36.0875 509.323,47.0875 516.5,67.5 Z"/></g>
<g><path style="opacity:1" fill="#b56cfe" d="M 434.5,95.5 C 434.054,98.0101 434.72,100.01 436.5,101.5C 440.762,112.124 448.429,118.791 459.5,121.5C 459.5,127.167 459.5,132.833 459.5,138.5C 458.167,138.5 456.833,138.5 455.5,138.5C 452.45,136.899 449.116,135.899 445.5,135.5C 432.576,128.577 423.576,118.243 418.5,104.5C 418.405,102.214 417.738,100.214 416.5,98.5C 416.737,97.209 416.404,96.209 415.5,95.5C 415.5,89.5 415.5,83.5 415.5,77.5C 416.945,74.0635 417.945,70.3968 418.5,66.5C 425.167,53.8333 434.833,44.1667 447.5,37.5C 451.5,36.8333 455.5,36.1667 459.5,35.5C 459.5,41.1667 459.5,46.8333 459.5,52.5C 455.489,52.5016 451.822,53.6683 448.5,56C 435.619,66.1371 430.952,79.3038 434.5,95.5 Z"/></g>
<g><path style="opacity:1" fill="#b66cfe" d="M 516.5,67.5 C 517.603,79.1334 517.769,90.8001 517,102.5C 515.489,105.796 514.323,109.129 513.5,112.5C 506.533,122.952 497.199,130.785 485.5,136C 483.187,136.662 480.854,137.162 478.5,137.5C 477.5,137.5 476.5,137.5 475.5,137.5C 475.5,132.5 475.5,127.5 475.5,122.5C 494.01,114.845 502.344,100.845 500.5,80.5C 500.59,77.8478 499.924,75.5145 498.5,73.5C 495.229,64.5629 489.229,58.2296 480.5,54.5C 479.359,53.661 478.026,52.9943 476.5,52.5C 475.505,46.8722 475.171,41.2055 475.5,35.5C 495.008,38.7464 508.675,49.4131 516.5,67.5 Z"/></g>
<g><path style="opacity:0.184" fill="#f5ecfe" d="M 102.5,37.5 C 111.219,39.8802 112.552,44.3802 106.5,51C 99.2149,51.9619 96.3816,48.7952 98,41.5C 99.2499,39.8065 100.75,38.4732 102.5,37.5 Z"/></g>
<g><path style="opacity:0.247" fill="#f3e8fe" d="M 68.5,38.5 C 75.1033,39.3515 77.27,43.0181 75,49.5C 70.7315,52.3831 66.7315,52.0498 63,48.5C 62.0009,43.4909 63.8342,40.1575 68.5,38.5 Z"/></g>
<g><path style="opacity:0.214" fill="#f3e8fd" d="M 38.5,34.5 C 44.0931,33.4506 47.4265,35.6173 48.5,41C 48.068,45.2656 45.7347,47.7656 41.5,48.5C 33.8125,45.1285 32.8125,40.4619 38.5,34.5 Z"/></g>
<g><path style="opacity:0.999" fill="#b871fd" d="M 38.5,36.5 C 46.8773,36.2743 48.544,39.441 43.5,46C 36.4741,45.7595 34.8074,42.5928 38.5,36.5 Z"/></g>
<g><path style="opacity:0.999" fill="#b872fe" d="M 101.5,39.5 C 108.632,39.7891 110.298,42.9558 106.5,49C 101.932,50.6505 99.2656,49.1505 98.5,44.5C 99.0924,42.5775 100.092,40.9108 101.5,39.5 Z"/></g>
<g><path style="opacity:0.018" fill="#f5ebfe" d="M 22.5,41.5 C 26.1632,40.9952 28.4965,42.4952 29.5,46C 27.3137,49.9702 24.4804,50.4702 21,47.5C 20.2516,45.1599 20.7516,43.1599 22.5,41.5 Z"/></g>
<g><path style="opacity:0.999" fill="#b872fe" d="M 66.5,40.5 C 71.869,40.0396 74.369,42.373 74,47.5C 71.2935,50.9779 68.2935,51.3112 65,48.5C 64.1093,45.5024 64.6093,42.8357 66.5,40.5 Z"/></g>
<g><path style="opacity:0.998" fill="#bd7bfd" d="M 22.5,43.5 C 24.1667,43.5 25.8333,43.5 27.5,43.5C 28.1693,47.6759 26.6693,49.0093 23,47.5C 22.51,46.2068 22.3433,44.8734 22.5,43.5 Z"/></g>
<g><path style="opacity:0.035" fill="#f3e7fe" d="M 129.5,35.5 C 136.771,35.0357 139.604,38.3691 138,45.5C 134,49.5 130,49.5 126,45.5C 124.581,41.0823 125.748,37.7489 129.5,35.5 Z"/></g>
<g><path style="opacity:0.999" fill="#b770fe" d="M 128.5,37.5 C 136.486,36.998 138.486,40.1647 134.5,47C 131.975,47.8959 129.808,47.3959 128,45.5C 127.278,42.7395 127.445,40.0728 128.5,37.5 Z"/></g>
<g><path style="opacity:0.014" fill="#f7effe" d="M 51.5,47.5 C 62.5587,47.0542 65.8921,51.8875 61.5,62C 53.8642,65.6081 48.8642,63.4414 46.5,55.5C 47.3709,52.304 49.0375,49.6373 51.5,47.5 Z"/></g>
<g><path style="opacity:0.098" fill="#f7f0fe" d="M 147.5,42.5 C 152.012,42.8689 153.512,45.2022 152,49.5C 148.167,52.4979 145.334,51.6646 143.5,47C 144.344,44.9933 145.677,43.4933 147.5,42.5 Z"/></g>
<g><path style="opacity:0.999" fill="#be7efd" d="M 146.5,44.5 C 150.138,43.7366 151.638,45.0699 151,48.5C 146.415,50.4126 144.915,49.0793 146.5,44.5 Z"/></g>
<g><path style="opacity:0.999" fill="#b872fd" d="M 52.5,48.5 C 59.1643,48.0002 62.331,51.0002 62,57.5C 58.0873,63.6175 53.754,63.9508 49,58.5C 48.3333,56.5 48.3333,54.5 49,52.5C 50.3756,51.2949 51.5423,49.9616 52.5,48.5 Z"/></g>
<g><path style="opacity:0.055" fill="#f2e6fd" d="M 31.5,51.5 C 38.8364,52.3958 40.1697,55.5625 35.5,61C 30.4125,61.6713 28.2458,59.5047 29,54.5C 29.6979,53.3094 30.5313,52.3094 31.5,51.5 Z"/></g>
<g><path style="opacity:0.997" fill="#b972fe" d="M 31.5,53.5 C 36.1585,53.0146 37.4919,54.848 35.5,59C 30.7282,59.8104 29.3948,57.9771 31.5,53.5 Z"/></g>
<g><path style="opacity:0.125" fill="#f4eafe" d="M 447.5,37.5 C 434.833,44.1667 425.167,53.8333 418.5,66.5C 423.167,51.8333 432.833,42.1667 447.5,37.5 Z"/></g>
<g><path style="opacity:0.055" fill="#f5ecfd" d="M 136.5,52.5 C 143.341,53.0158 145.007,56.1825 141.5,62C 135.498,62.9931 133.332,60.4931 135,54.5C 135.717,53.9558 136.217,53.2891 136.5,52.5 Z"/></g>
<g><path style="opacity:0.999" fill="#bc7afd" d="M 136.5,54.5 C 140.509,54.0136 142.342,55.6803 142,59.5C 136.42,61.7516 134.587,60.0849 136.5,54.5 Z"/></g>
<g><path style="opacity:0.014" fill="#f6edfe" d="M 293.5,134.5 C 284.08,111.852 275.414,88.8525 267.5,65.5C 267.065,62.8427 266.065,60.5093 264.5,58.5C 264.097,55.5145 263.097,52.8478 261.5,50.5C 261.741,48.1016 261.074,46.1016 259.5,44.5C 258.304,41.5786 257.304,38.5786 256.5,35.5C 250.021,34.5093 243.354,34.176 236.5,34.5C 236.263,35.791 236.596,36.791 237.5,37.5C 240.11,44.3913 242.443,51.3913 244.5,58.5C 244.66,60.153 245.326,61.4863 246.5,62.5C 248.321,67.4518 249.988,72.4518 251.5,77.5C 251.5,78.5 251.5,79.5 251.5,80.5C 245.919,65.3715 240.252,50.2048 234.5,35C 238.321,33.864 242.321,33.364 246.5,33.5C 250.167,33.8333 253.833,34.1667 257.5,34.5C 270.107,67.6573 282.107,100.991 293.5,134.5 Z"/></g>
<g><path style="opacity:0.922" fill="#c993fc" d="M 259.5,44.5 C 261.074,46.1016 261.741,48.1016 261.5,50.5C 259.926,48.8984 259.259,46.8984 259.5,44.5 Z"/></g>
<g><path style="opacity:0.69" fill="#c096ec" d="M 256.5,35.5 C 249.745,34.8771 243.412,35.5437 237.5,37.5C 236.596,36.791 236.263,35.791 236.5,34.5C 243.354,34.176 250.021,34.5093 256.5,35.5 Z"/></g>
<g><path style="opacity:0.702" fill="#d1a3fd" d="M 244.5,58.5 C 246.104,59.287 246.771,60.6203 246.5,62.5C 245.326,61.4863 244.66,60.153 244.5,58.5 Z"/></g>
<g><path style="opacity:0.11" fill="#f2e7fd" d="M 124.5,52.5 C 127.462,59.1556 125.129,63.1556 117.5,64.5C 109.431,62.2688 107.431,57.4355 111.5,50C 116.886,46.2687 121.219,47.102 124.5,52.5 Z"/></g>
<g><path style="opacity:0.999" fill="#b871fe" d="M 124.5,52.5 C 125.176,59.9922 121.843,63.1589 114.5,62C 109.182,57.951 109.182,53.951 114.5,50C 118.327,49.0239 121.66,49.8572 124.5,52.5 Z"/></g>
<g><path style="opacity:0.957" fill="#c892fc" d="M 264.5,58.5 C 266.065,60.5093 267.065,62.8427 267.5,65.5C 265.166,63.8243 264.166,61.491 264.5,58.5 Z"/></g>
<g><path style="opacity:1" fill="#b66dfe" d="M 232.5,71.5 C 232.826,74.3113 233.659,76.978 235,79.5C 235.667,81.8333 235.667,84.1667 235,86.5C 228.114,103.668 220.948,120.668 213.5,137.5C 210.5,137.833 207.5,138.167 204.5,138.5C 201.087,138.483 198.087,137.816 195.5,136.5C 200.517,123.141 205.517,109.807 210.5,96.5C 216.118,84.852 221.284,72.852 226,60.5C 226.333,60.1667 226.667,59.8333 227,59.5C 228.759,63.6443 230.592,67.6443 232.5,71.5 Z"/></g>
<g><path style="opacity:0.008" fill="#f1e4fe" d="M 435.5,95.5 C 435.167,95.5 434.833,95.5 434.5,95.5C 430.952,79.3038 435.619,66.1371 448.5,56C 451.822,53.6683 455.489,52.5016 459.5,52.5C 459.5,46.8333 459.5,41.1667 459.5,35.5C 455.5,36.1667 451.5,36.8333 447.5,37.5C 451.693,34.9103 456.36,33.9103 461.5,34.5C 461.666,40.5092 461.499,46.5092 461,52.5C 447.602,56.2327 439.268,64.8994 436,78.5C 435.501,84.1569 435.334,89.8236 435.5,95.5 Z"/></g>
<g><path style="opacity:0.204" fill="#f5ebfd" d="M 41.5,62.5 C 50.673,62.861 53.0064,66.861 48.5,74.5C 40.7041,77.1902 37.2041,74.5235 38,66.5C 39.3756,65.2949 40.5423,63.9616 41.5,62.5 Z"/></g>
<g><path style="opacity:0.999" fill="#b872fd" d="M 41.5,64.5 C 49.8877,64.3622 51.5544,67.5288 46.5,74C 40.4983,74.9931 38.3317,72.4931 40,66.5C 40.7172,65.9558 41.2172,65.2891 41.5,64.5 Z"/></g>
<g><path style="opacity:0.184" fill="#f5ecfe" d="M 125.5,75.5 C 123.983,75.4894 122.816,74.8228 122,73.5C 120.424,64.4098 123.924,61.5764 132.5,65C 134.851,68.0523 135.018,71.219 133,74.5C 130.561,76.4977 128.061,76.831 125.5,75.5 Z"/></g>
<g><path style="opacity:0.998" fill="#ba75fd" d="M 125.5,75.5 C 121.565,71.996 121.565,68.496 125.5,65C 131.096,64.4017 133.263,66.9017 132,72.5C 130.491,74.9193 128.325,75.9193 125.5,75.5 Z"/></g>
<g><path style="opacity:0.047" fill="#f6edfe" d="M 418.5,66.5 C 417.945,70.3968 416.945,74.0635 415.5,77.5C 414.945,73.2935 415.945,69.6269 418.5,66.5 Z"/></g>
<g><path style="opacity:0.459" fill="#d7affd" d="M 498.5,73.5 C 499.924,75.5145 500.59,77.8478 500.5,80.5C 499.076,78.4855 498.41,76.1522 498.5,73.5 Z"/></g>
<g><path style="opacity:0.173" fill="#f2e7fd" d="M 63.5,84.5 C 58.7619,80.5774 54.0952,80.5774 49.5,84.5C 50.6486,80.9972 53.1486,79.3305 57,79.5C 60.4852,79.4883 62.6519,81.1549 63.5,84.5 Z"/></g>
<g><path style="opacity:0.999" fill="#b972fe" d="M 63.5,84.5 C 63.6635,92.3446 59.9969,95.3446 52.5,93.5C 49.9228,91.0798 48.9228,88.0798 49.5,84.5C 54.0952,80.5774 58.7619,80.5774 63.5,84.5 Z"/></g>
<g><path style="opacity:0.016" fill="#f6edfe" d="M 232.5,71.5 C 230.592,67.6443 228.759,63.6443 227,59.5C 226.667,59.8333 226.333,60.1667 226,60.5C 221.284,72.852 216.118,84.852 210.5,96.5C 215.003,83.1601 220.337,70.1601 226.5,57.5C 227.478,57.9767 228.311,58.6433 229,59.5C 230.484,63.4468 231.65,67.4468 232.5,71.5 Z"/></g>
<g><path style="opacity:0.173" fill="#f1e3fe" d="M 232.5,71.5 C 235.502,75.6717 237.002,80.3384 237,85.5C 229.804,102.753 222.804,120.087 216,137.5C 213.826,139.176 211.326,140.176 208.5,140.5C 203.654,139.633 198.988,139.3 194.5,139.5C 194.263,138.209 194.596,137.209 195.5,136.5C 198.087,137.816 201.087,138.483 204.5,138.5C 207.5,138.167 210.5,137.833 213.5,137.5C 220.948,120.668 228.114,103.668 235,86.5C 235.667,84.1667 235.667,81.8333 235,79.5C 233.659,76.978 232.826,74.3113 232.5,71.5 Z"/></g>
<g><path style="opacity:0.069" fill="#f8f0fe" d="M 516.5,67.5 C 517.222,67.9175 517.722,68.5842 518,69.5C 518.667,80.8333 518.667,92.1667 518,103.5C 517.337,107.035 515.837,110.035 513.5,112.5C 514.323,109.129 515.489,105.796 517,102.5C 517.769,90.8001 517.603,79.1334 516.5,67.5 Z"/></g>
<g><path style="opacity:0.097" fill="#f9f3fe" d="M 415.5,77.5 C 415.5,83.5 415.5,89.5 415.5,95.5C 413.049,89.519 413.049,83.519 415.5,77.5 Z"/></g>
<g><path style="opacity:0.051" fill="#f4ebfe" d="M 121.5,84.5 C 123.922,88.2904 123.256,91.7904 119.5,95C 115.343,97.1714 111.509,96.6714 108,93.5C 104.456,84.059 107.623,79.559 117.5,80C 119.751,80.7475 121.084,82.2475 121.5,84.5 Z"/></g>
<g><path style="opacity:1" fill="#b871fe" d="M 121.5,84.5 C 121.847,91.6545 118.514,94.8212 111.5,94C 106.577,90.3854 106.244,86.3854 110.5,82C 114.655,80.9464 118.322,81.7798 121.5,84.5 Z"/></g>
<g><path style="opacity:0.129" fill="#f2e6fd" d="M 93.5,56.5 C 94.3091,58.2922 94.8091,60.2922 95,62.5C 107.787,57.6193 113.121,61.9526 111,75.5C 106.899,79.9936 102.066,81.6602 96.5,80.5C 98.9789,85.53 99.1456,90.53 97,95.5C 108.201,93.3669 112.868,98.0335 111,109.5C 107.301,114.272 102.467,115.772 96.5,114C 91.3087,109.25 90.1421,103.75 93,97.5C 85.0699,101.5 79.0699,99.5001 75,91.5C 73.9895,87.2194 74.8228,83.386 77.5,80C 73.7579,81.4118 69.7579,81.7451 65.5,81C 57.9875,75.0696 57.6542,68.7362 64.5,62C 77.2955,59.7884 81.9622,64.7884 78.5,77C 81.1001,76.6466 83.7668,76.1466 86.5,75.5C 88.5122,75.8396 90.5122,76.1729 92.5,76.5C 91.4293,72.7972 91.2626,69.1305 92,65.5C 84.6949,68.9512 79.8616,66.7846 77.5,59C 80.0693,50.743 85.0693,48.743 92.5,53C 93.3366,54.0113 93.67,55.1779 93.5,56.5 Z"/></g>
<g><path style="opacity:1" fill="#b56bfe" d="M 81.5,77.5 C 93.043,76.2075 97.8764,81.2075 96,92.5C 90.2192,98.665 84.2192,98.9983 78,93.5C 75.1562,87.1808 76.3229,81.8475 81.5,77.5 Z"/></g>
<g><path style="opacity:1" fill="#b66efe" d="M 72.5,63.5 C 78.0069,65.1793 79.8402,68.846 78,74.5C 73.0922,81.9858 67.7588,82.3192 62,75.5C 61.3333,72.5 61.3333,69.5 62,66.5C 62.7083,65.6195 63.5416,64.9528 64.5,64.5C 67.0961,63.7347 69.7628,63.4013 72.5,63.5 Z"/></g>
<g><path style="opacity:0.886" fill="#ca93fc" d="M 72.5,63.5 C 69.7628,63.4013 67.0961,63.7347 64.5,64.5C 65.4919,62.9735 66.9919,62.3068 69,62.5C 70.3847,62.5143 71.5514,62.8476 72.5,63.5 Z"/></g>
<g><path style="opacity:1" fill="#b76ffe" d="M 98.5,61.5 C 107.211,61.0665 111.044,65.0665 110,73.5C 107.647,78.4264 103.814,80.2598 98.5,79C 93.8451,76.1034 92.3451,71.9367 94,66.5C 95.025,64.313 96.525,62.6464 98.5,61.5 Z"/></g>
<g><path style="opacity:0.999" fill="#b871fe" d="M 93.5,56.5 C 93.1979,63.6319 89.5312,66.4652 82.5,65C 78.269,60.5216 78.6023,56.5216 83.5,53C 85.5,52.3333 87.5,52.3333 89.5,53C 90.7051,54.3756 92.0384,55.5423 93.5,56.5 Z"/></g>
<g><path style="opacity:0.66" fill="#ca9cf8" d="M 365.5,34.5 C 365.832,69.3373 365.498,104.004 364.5,138.5C 364.5,104.167 364.5,69.8333 364.5,35.5C 358.833,35.5 353.167,35.5 347.5,35.5C 347.5,69.8333 347.5,104.167 347.5,138.5C 346.502,104.004 346.168,69.3373 346.5,34.5C 352.833,34.5 359.167,34.5 365.5,34.5 Z"/></g>
<g><path style="opacity:0.999" fill="#b368fe" d="M 364.5,138.5 C 358.833,138.5 353.167,138.5 347.5,138.5C 347.5,104.167 347.5,69.8333 347.5,35.5C 353.167,35.5 358.833,35.5 364.5,35.5C 364.5,69.8333 364.5,104.167 364.5,138.5 Z"/></g>
<g><path style="opacity:0.016" fill="#f3e7fd" d="M 49.5,84.5 C 48.9228,88.0798 49.9228,91.0798 52.5,93.5C 59.9969,95.3446 63.6635,92.3446 63.5,84.5C 64.8143,86.8953 64.8143,89.3953 63.5,92C 69.9614,90.4268 74.6281,92.5934 77.5,98.5C 71.5506,92.0795 65.7173,92.0795 60,98.5C 58.9801,102.71 59.9801,106.377 63,109.5C 65.3806,110.435 67.8806,110.768 70.5,110.5C 69.0813,111.451 67.4147,111.784 65.5,111.5C 62.3579,111.201 60.1912,109.534 59,106.5C 57.9766,102.683 58.4766,99.1831 60.5,96C 53.8635,97.178 49.5301,94.5114 47.5,88C 48.0848,86.6976 48.7515,85.531 49.5,84.5 Z"/></g>
<g><path style="opacity:0.999" fill="#b66ffe" d="M 77.5,98.5 C 78.4996,104.49 76.1662,108.49 70.5,110.5C 67.8806,110.768 65.3806,110.435 63,109.5C 59.9801,106.377 58.9801,102.71 60,98.5C 65.7173,92.0795 71.5506,92.0795 77.5,98.5 Z"/></g>
<g><path style="opacity:0.039" fill="#f1e4fe" d="M 251.5,77.5 C 258.755,97.6607 266.255,117.661 274,137.5C 280.41,138.478 286.91,138.811 293.5,138.5C 293.5,137.167 293.5,135.833 293.5,134.5C 296.188,136.733 296.021,138.733 293,140.5C 287.036,140.578 280.869,140.411 274.5,140C 265.244,120.836 257.578,101.003 251.5,80.5C 251.5,79.5 251.5,78.5 251.5,77.5 Z"/></g>
<g><path style="opacity:1" fill="#b66dfe" d="M 96.5,96.5 C 99.5184,96.3354 102.518,96.502 105.5,97C 111.747,101.514 112.08,106.514 106.5,112C 98.8226,115.164 94.4892,112.664 93.5,104.5C 93.5505,101.459 94.5505,98.7923 96.5,96.5 Z"/></g>
<g><path style="opacity:0.043" fill="#f4e9fe" d="M 40.5,97.5 C 49.8053,96.9514 52.472,100.785 48.5,109C 40.6611,111.499 37.1611,108.666 38,100.5C 38.6979,99.3094 39.5313,98.3094 40.5,97.5 Z"/></g>
<g><path style="opacity:0.999" fill="#b872fd" d="M 41.5,98.5 C 48.1983,98.216 50.1983,101.216 47.5,107.5C 41.6972,109.518 38.8639,107.518 39,101.5C 40.045,100.627 40.8783,99.6266 41.5,98.5 Z"/></g>
<g><path style="opacity:0.149" fill="#f5ebfe" d="M 125.5,97.5 C 132.809,97.6663 135.309,101.333 133,108.5C 127.029,113.106 122.863,111.773 120.5,104.5C 121.065,101.284 122.732,98.9509 125.5,97.5 Z"/></g>
<g><path style="opacity:0.937" fill="#c996fb" d="M 434.5,95.5 C 434.833,95.5 435.167,95.5 435.5,95.5C 435.833,97.5 436.167,99.5 436.5,101.5C 434.72,100.01 434.054,98.0101 434.5,95.5 Z"/></g>
<g><path style="opacity:0.999" fill="#b973fd" d="M 124.5,99.5 C 132.877,99.2743 134.544,102.441 129.5,109C 123.498,109.993 121.332,107.493 123,101.5C 123.717,100.956 124.217,100.289 124.5,99.5 Z"/></g>
<g><path style="opacity:0.204" fill="#debffd" d="M 416.5,98.5 C 417.738,100.214 418.405,102.214 418.5,104.5C 416.926,102.898 416.259,100.898 416.5,98.5 Z"/></g>
<g><path style="opacity:0.059" fill="#f2e5fe" d="M 435.5,95.5 C 439.405,108.572 447.905,117.239 461,121.5C 461.499,127.491 461.666,133.491 461.5,139.5C 459.265,139.795 457.265,139.461 455.5,138.5C 456.833,138.5 458.167,138.5 459.5,138.5C 459.5,132.833 459.5,127.167 459.5,121.5C 448.429,118.791 440.762,112.124 436.5,101.5C 436.167,99.5 435.833,97.5 435.5,95.5 Z"/></g>
<g><path style="opacity:0.102" fill="#f5ecfe" d="M 77.5,98.5 C 79.6875,108.644 75.6875,112.977 65.5,111.5C 67.4147,111.784 69.0813,111.451 70.5,110.5C 76.1662,108.49 78.4996,104.49 77.5,98.5 Z"/></g>
<g><path style="opacity:0.169" fill="#f4eafe" d="M 480.5,54.5 C 489.229,58.2296 495.229,64.5629 498.5,73.5C 498.41,76.1522 499.076,78.4855 500.5,80.5C 502.344,100.845 494.01,114.845 475.5,122.5C 474.512,127.64 474.179,132.974 474.5,138.5C 476.099,138.768 477.432,138.434 478.5,137.5C 480.854,137.162 483.187,136.662 485.5,136C 497.199,130.785 506.533,122.952 513.5,112.5C 505.648,129.313 492.314,138.313 473.5,139.5C 473.334,133.491 473.501,127.491 474,121.5C 495.586,112.324 503.253,96.3245 497,73.5C 493.44,65.4429 487.94,59.1095 480.5,54.5 Z"/></g>
<g><path style="opacity:0.133" fill="#f5ecfe" d="M 135.5,112.5 C 142.61,111.904 144.61,114.737 141.5,121C 134.215,121.934 132.215,119.101 135.5,112.5 Z"/></g>
<g><path style="opacity:0.999" fill="#bc79fd" d="M 136.5,113.5 C 140.677,112.842 142.177,114.508 141,118.5C 139.688,120.658 138.022,120.991 136,119.5C 135.322,117.402 135.489,115.402 136.5,113.5 Z"/></g>
<g><path style="opacity:0.075" fill="#f8f2fe" d="M 31.5,112.5 C 37.041,111.412 38.7077,113.746 36.5,119.5C 29.9704,122.243 27.4704,120.243 29,113.5C 29.6708,112.748 30.5041,112.414 31.5,112.5 Z"/></g>
<g><path style="opacity:0.998" fill="#be7dfd" d="M 31.5,112.5 C 35.7069,112.694 37.0402,114.694 35.5,118.5C 29.3445,119.946 28.0112,117.946 31.5,112.5 Z"/></g>
<g><path style="opacity:0.043" fill="#f7effe" d="M 210.5,96.5 C 205.517,109.807 200.517,123.141 195.5,136.5C 194.596,137.209 194.263,138.209 194.5,139.5C 193.441,137.274 193.608,134.941 195,132.5C 199.96,120.264 205.127,108.264 210.5,96.5 Z"/></g>
<g><path style="opacity:0.267" fill="#f4eafe" d="M 114.5,109.5 C 122.523,109.683 126.023,113.683 125,121.5C 120.36,127.688 115.36,128.021 110,122.5C 107.819,116.877 109.319,112.544 114.5,109.5 Z"/></g>
<g><path style="opacity:0.999" fill="#b76ffe" d="M 113.5,111.5 C 123.818,111.322 126.151,115.489 120.5,124C 110.102,124.471 107.768,120.305 113.5,111.5 Z"/></g>
<g><path style="opacity:0.176" fill="#f2e6fe" d="M 415.5,95.5 C 416.404,96.209 416.737,97.209 416.5,98.5C 416.259,100.898 416.926,102.898 418.5,104.5C 423.576,118.243 432.576,128.577 445.5,135.5C 430.728,129.555 420.895,118.889 416,103.5C 415.503,100.854 415.336,98.1873 415.5,95.5 Z"/></g>
<g><path style="opacity:0.043" fill="#f4eafe" d="M 82.5,108.5 C 91.3981,109.631 94.0648,114.298 90.5,122.5C 83.0806,127.461 78.0806,125.628 75.5,117C 76.2675,112.744 78.6008,109.911 82.5,108.5 Z"/></g>
<g><path style="opacity:1" fill="#b76ffe" d="M 80.5,110.5 C 90.8176,110.322 93.1509,114.489 87.5,123C 77.1015,123.471 74.7682,119.305 80.5,110.5 Z"/></g>
<g><path style="opacity:0.047" fill="#f6edfe" d="M 65.5,121.5 C 74.5226,121.062 77.1893,124.895 73.5,133C 67.4821,136.111 63.4821,134.445 61.5,128C 62.2259,125.366 63.5593,123.199 65.5,121.5 Z"/></g>
<g><path style="opacity:0.014" fill="#faf6fe" d="M 100.5,123.5 C 102.288,122.378 104.288,122.211 106.5,123C 107.823,123.816 108.489,124.983 108.5,126.5C 108.167,126.5 107.833,126.5 107.5,126.5C 107.167,125.5 106.5,124.833 105.5,124.5C 104.081,123.549 102.415,123.216 100.5,123.5 Z"/></g>
<g><path style="opacity:0.999" fill="#ba75fd" d="M 66.5,122.5 C 73.9675,123.674 75.3008,127.174 70.5,133C 65.1778,133.34 63.0112,130.84 64,125.5C 65.045,124.627 65.8783,123.627 66.5,122.5 Z"/></g>
<g><path style="opacity:0.522" fill="#d5b1f9" d="M 100.5,123.5 C 102.415,123.216 104.081,123.549 105.5,124.5C 103.435,124.517 101.435,124.85 99.5,125.5C 99.8333,124.833 100.167,124.167 100.5,123.5 Z"/></g>
<g><path style="opacity:0.469" fill="#d9b4fd" d="M 475.5,122.5 C 475.5,127.5 475.5,132.5 475.5,137.5C 476.5,137.5 477.5,137.5 478.5,137.5C 477.432,138.434 476.099,138.768 474.5,138.5C 474.179,132.974 474.512,127.64 475.5,122.5 Z"/></g>
<g><path style="opacity:0.047" fill="#f6edfe" d="M 51.5,109.5 C 60.6584,108.491 64.4918,112.491 63,121.5C 57.2108,128.218 51.8775,127.885 47,120.5C 45.7758,115.626 47.2758,111.959 51.5,109.5 Z"/></g>
<g><path style="opacity:0.999" fill="#b76ffe" d="M 53.5,110.5 C 59.67,111.162 62.17,114.495 61,120.5C 58.8387,124.124 55.672,125.291 51.5,124C 47.0419,118.589 47.7085,114.089 53.5,110.5 Z"/></g>
<g><path style="opacity:0.022" fill="#f4ebfe" d="M 37.5,125.5 C 47.766,125.262 50.0993,129.428 44.5,138C 38.613,139.565 35.2797,137.398 34.5,131.5C 34.6284,129.045 35.6284,127.045 37.5,125.5 Z"/></g>
<g><path style="opacity:0.999" fill="#b973fd" d="M 105.5,124.5 C 106.5,124.833 107.167,125.5 107.5,126.5C 107.5,128.167 107.5,129.833 107.5,131.5C 103.205,135.928 99.872,135.261 97.5,129.5C 97.6682,127.829 98.3349,126.496 99.5,125.5C 101.435,124.85 103.435,124.517 105.5,124.5 Z"/></g>
<g><path style="opacity:0.016" fill="#f3e9fd" d="M 146.5,123.5 C 150.976,123.822 152.476,126.156 151,130.5C 147.352,133.263 144.852,132.43 143.5,128C 143.557,125.791 144.557,124.291 146.5,123.5 Z"/></g>
<g><path style="opacity:0.169" fill="#f4ebfd" d="M 22.5,122.5 C 27.3652,122.684 29.0319,125.018 27.5,129.5C 23.821,132.443 21.1543,131.609 19.5,127C 20.3862,125.385 21.3862,123.885 22.5,122.5 Z"/></g>
<g><path style="opacity:0.999" fill="#bc7bfd" d="M 22.5,124.5 C 23.8333,124.5 25.1667,124.5 26.5,124.5C 26.5,126.167 26.5,127.833 26.5,129.5C 22.065,130.078 20.7317,128.411 22.5,124.5 Z"/></g>
<g><path style="opacity:0.997" fill="#bb77fd" d="M 145.5,125.5 C 149.138,124.737 150.638,126.07 150,129.5C 146.331,131.009 144.831,129.676 145.5,125.5 Z"/></g>
<g><path style="opacity:0.999" fill="#b872fd" d="M 38.5,126.5 C 45.6275,126.706 47.2942,129.873 43.5,136C 35.4079,136.09 33.7412,132.923 38.5,126.5 Z"/></g>
<g><path style="opacity:0.573" fill="#e4c8fe" d="M 107.5,126.5 C 107.833,126.5 108.167,126.5 108.5,126.5C 109.833,128.167 109.833,129.833 108.5,131.5C 108.167,131.5 107.833,131.5 107.5,131.5C 107.5,129.833 107.5,128.167 107.5,126.5 Z"/></g>
<g><path style="opacity:0.004" fill="#f8f2fe" d="M 100.5,123.5 C 100.167,124.167 99.8333,124.833 99.5,125.5C 98.3349,126.496 97.6682,127.829 97.5,129.5C 99.872,135.261 103.205,135.928 107.5,131.5C 107.833,131.5 108.167,131.5 108.5,131.5C 108.489,133.017 107.823,134.184 106.5,135C 97.7521,136.254 94.9187,132.754 98,124.5C 98.6708,123.748 99.5041,123.414 100.5,123.5 Z"/></g>
<g><path style="opacity:0.02" fill="#f5ebfe" d="M 128.5,125.5 C 134.641,124.816 137.808,127.483 138,133.5C 135.928,138.143 132.428,139.643 127.5,138C 123.5,133.496 123.833,129.329 128.5,125.5 Z"/></g>
<g><path style="opacity:0.999" fill="#b873fd" d="M 128.5,127.5 C 136.877,127.274 138.544,130.441 133.5,137C 127.498,137.993 125.332,135.493 127,129.5C 127.717,128.956 128.217,128.289 128.5,127.5 Z"/></g>
<g><path style="opacity:0.043" fill="#f6eefe" d="M 113.5,135.5 C 120.486,135.331 122.153,138.164 118.5,144C 114.26,145.539 111.593,144.206 110.5,140C 110.957,138.06 111.957,136.56 113.5,135.5 Z"/></g>
<g><path style="opacity:0.039" fill="#f4e9fe" d="M 445.5,135.5 C 449.116,135.899 452.45,136.899 455.5,138.5C 451.714,138.68 448.381,137.68 445.5,135.5 Z"/></g>
<g><path style="opacity:0.997" fill="#bb78fd" d="M 114.5,136.5 C 118.473,137.075 119.473,139.242 117.5,143C 114.433,144.164 112.767,143.164 112.5,140C 112.862,138.566 113.528,137.399 114.5,136.5 Z"/></g>
<g><path style="opacity:0.043" fill="#f6eefe" d="M 53.5,134.5 C 60.3034,133.735 62.3034,136.568 59.5,143C 51.749,144.091 49.749,141.258 53.5,134.5 Z"/></g>
<g><path style="opacity:0.998" fill="#bb78fd" d="M 54.5,135.5 C 58.713,135.699 60.0464,137.699 58.5,141.5C 56.9579,142.747 55.4579,142.747 54,141.5C 53.3224,139.402 53.4891,137.402 54.5,135.5 Z"/></g>
<g><path style="opacity:0.086" fill="#f6eefe" d="M 27.5,139.5 C 33.9355,139.538 35.6022,142.372 32.5,148C 28.2598,149.539 25.5932,148.206 24.5,144C 24.9567,142.06 25.9567,140.56 27.5,139.5 Z"/></g>
<g><path style="opacity:0.998" fill="#bd7afd" d="M 28.5,140.5 C 30.9477,140.085 32.2811,141.085 32.5,143.5C 31.8754,146.986 30.0421,147.986 27,146.5C 26.2568,144.126 26.7568,142.126 28.5,140.5 Z"/></g>
<g><path style="opacity:0.286" fill="#f2e7fd" d="M 142.5,138.5 C 147.241,139.324 148.908,141.991 147.5,146.5C 143.1,149.7 140.1,148.7 138.5,143.5C 139.127,141.213 140.46,139.546 142.5,138.5 Z"/></g>
<g><path style="opacity:0.999" fill="#b973fe" d="M 141.5,140.5 C 146.159,140.015 147.492,141.848 145.5,146C 140.728,146.81 139.395,144.977 141.5,140.5 Z"/></g>
<g><path style="opacity:0.071" fill="#f6edfe" d="M 124.5,144.5 C 129.15,144.648 130.983,146.981 130,151.5C 127.667,154.167 125.333,154.167 123,151.5C 122.167,148.829 122.667,146.496 124.5,144.5 Z"/></g>
<g><path style="opacity:0.997" fill="#bd7bfd" d="M 124.5,146.5 C 125.833,146.5 127.167,146.5 128.5,146.5C 128.5,148.167 128.5,149.833 128.5,151.5C 124.065,152.078 122.732,150.411 124.5,146.5 Z"/></g>
<g><path style="opacity:0.016" fill="#f4eafe" d="M 42.5,144.5 C 49.1447,143.977 50.8114,146.477 47.5,152C 41.131,152.411 39.4643,149.911 42.5,144.5 Z"/></g>
<g><path style="opacity:0.957" fill="#bf80fc" d="M 43.5,145.5 C 44.8333,145.5 46.1667,145.5 47.5,145.5C 47.5,147.167 47.5,148.833 47.5,150.5C 45.8333,150.5 44.1667,150.5 42.5,150.5C 42.366,148.708 42.6993,147.042 43.5,145.5 Z"/></g>
</svg>
